<?xml version="1.0" encoding="utf-8"?>
<?xml-stylesheet type="text/xsl" href="rss1.xsl"?>
<rss version="2.0" xmlns:atom="http://www.w3.org/2005/Atom" xmlns:content="http://purl.org/rss/1.0/modules/content/" xmlns:dc="http://purl.org/dc/elements/1.1/" xmlns:media="http://search.yahoo.com/mrss/">
<channel>
 <title>Getty</title>
 <link>http://www.gettyimg.com/</link>
 <atom:link href="http://www.gettyimg.com/" rel="self" type="application/rss+xml" />

 
                <item>
                <title><![CDATA[【HD Live Performances】WEB-DL - Taylor Swift - The Eras Tour Film (Taylor's Version) Dolby Vision 25GB]]></title>
                <link><![CDATA[https://sharemania.us/threads/taylor-swift-the-eras-tour-film-taylors-version-dolby-vision-25gb.240144/]]></link>
                <description><![CDATA[<article>
<blockquote class="messageText SelectQuoteContainer ugc baseHtml">
<img src="https://i.postimg.cc/KYftD2Hb/Taylor-Sw-ift-The-Eras-Tour-2023-Taylors-Version-2160p-DSNP-WEB-DL-DDP5-1-Atmos-DV-H-265-FLUX-mkv-thu.png" class="bbCodeImage LbImage" alt="[​IMG]" data-url="https://i.postimg.cc/KYftD2Hb/Taylor-Sw-ift-The-Eras-Tour-2023-Taylors-Version-2160p-DSNP-WEB-DL-DDP5-1-Atmos-DV-H-265-FLUX-mkv-thu.png" style=""><br>
<br>
<span style="color: #ff0000"><b>Screenshots:</b></span><br>
<img src="https://i.postimg.cc/7ZBRspc3/Taylor-Sw-ift-The-Eras-Tour-2023-Taylors-Version-2160p-DSNP-WEB-DL-DDP5-1-Atmos-DV-H-265-FLUX-mkv-sna.png" class="bbCodeImage LbImage" alt="[​IMG]" data-url="https://i.postimg.cc/7ZBRspc3/Taylor-Sw-ift-The-Eras-Tour-2023-Taylors-Version-2160p-DSNP-WEB-DL-DDP5-1-Atmos-DV-H-265-FLUX-mkv-sna.png" style=""> <img src="https://i.postimg.cc/pLV7B20V/Taylor-Sw-ift-The-Eras-Tour-2023-Taylors-Version-2160p-DSNP-WEB-DL-DDP5-1-Atmos-DV-H-265-FLUX-mkv-sna.png" class="bbCodeImage LbImage" alt="[​IMG]" data-url="https://i.postimg.cc/pLV7B20V/Taylor-Sw-ift-The-Eras-Tour-2023-Taylors-Version-2160p-DSNP-WEB-DL-DDP5-1-Atmos-DV-H-265-FLUX-mkv-sna.png" style=""><br>
<img src="https://i.postimg.cc/5t6RZsdZ/Taylor-Sw-ift-The-Eras-Tour-2023-Taylors-Version-2160p-DSNP-WEB-DL-DDP5-1-Atmos-DV-H-265-FLUX-mkv-sna.png" class="bbCodeImage LbImage" alt="[​IMG]" data-url="https://i.postimg.cc/5t6RZsdZ/Taylor-Sw-ift-The-Eras-Tour-2023-Taylors-Version-2160p-DSNP-WEB-DL-DDP5-1-Atmos-DV-H-265-FLUX-mkv-sna.png" style=""><br>
<img src="https://i.postimg.cc/5t0hfxvK/Taylor-Sw-ift-The-Eras-Tour-2023-Taylors-Version-2160p-DSNP-WEB-DL-DDP5-1-Atmos-DV-H-265-FLUX-mkv-sna.png" class="bbCodeImage LbImage" alt="[​IMG]" data-url="https://i.postimg.cc/5t0hfxvK/Taylor-Sw-ift-The-Eras-Tour-2023-Taylors-Version-2160p-DSNP-WEB-DL-DDP5-1-Atmos-DV-H-265-FLUX-mkv-sna.png" style=""><br>
<br>
<div class="ToggleTriggerAnchor bbCodeSpoilerContainer">
<button type="button" class="button bbCodeSpoilerButton ToggleTrigger Tooltip JsOnly" data-target="> .SpoilerTarget"><span>Spoiler: <span class="SpoilerTitle">MEDIAINFO</span></span></button>
<div class="SpoilerTarget bbCodeSpoilerText">General<br>
Format : Matroska<br>
Format version : Version 4<br>
File size : 25.5 GiB<br>
Duration : 3 h 30 min<br>
Overall bit rate : 17.3 Mb/s<br>
Frame rate : 24.000 FPS<br>
Writing application : mkvmerge v79.0 ('Funeral Pyres') 64-bit<br>
Writing library : libebml v1.4.4 + libmatroska v1.7.1<br>
<br>
Video<br>
ID : 1<br>
Format : HEVC<br>
Format/Info : High Efficiency Video Coding<br>
Format profile : Main 10@L5@High<br>
HDR format : Dolby Vision, Version 1.0, dvhe.05.06, BL+RPU<br>
Codec ID : V_MPEGH/ISO/HEVC<br>
Duration : 3 h 30 min<br>
Bit rate : 16.6 Mb/s<br>
Width : 3 840 pixels<br>
Height : 2 160 pixels<br>
Display aspect ratio : 16:9<br>
Frame rate mode : Constant<br>
Frame rate : 24.000 FPS<br>
Color space : YUV<br>
Chroma subsampling : 4:2:0<br>
Bit depth : 10 bits<br>
Bits/(Pixel*Frame) : 0.083<br>
Stream size : 24.3 GiB (96%)<br>
Language : English<br>
Default : Yes<br>
Forced : No<br>
Color range : Full<br>
<br>
Audio<br>
ID : 2<br>
Format : E-AC-3 JOC<br>
Format/Info : Enhanced AC-3 with Joint Object Coding<br>
Commercial name : Dolby Digital Plus with Dolby Atmos<br>
Codec ID : A_EAC3<br>
Duration : 3 h 30 min<br>
Bit rate mode : Constant<br>
Bit rate : 768 kb/s<br>
Channel(s) : 6 channels<br>
Channel layout : L R C LFE Ls Rs<br>
Sampling rate : 48.0 kHz<br>
Frame rate : 31.250 FPS (1536 SPF)<br>
Compression mode : Lossy<br>
Stream size : 1.13 GiB (4%)<br>
Language : English<br>
Service kind : Complete Main<br>
Default : Yes<br>
Forced : No<br>
Complexity index : 16<br>
Number of dynamic objects : 15<br>
Bed channel count : 1 channel<br>
Bed channel configuration : LFE<br>
<br>
Text #1<br>
ID : 3<br>
Format : UTF-8<br>
Codec ID : S_TEXT/UTF8<br>
Codec ID/Info : UTF-8 Plain Text<br>
Duration : 3 h 29 min<br>
Bit rate : 88 b/s<br>
Frame rate : 0.247 FPS<br>
Count of elements : 3112<br>
Stream size : 137 KiB (0%)<br>
Language : English<br>
Default : No<br>
Forced : No<br>
<br>
Text #2<br>
ID : 4<br>
Format : UTF-8<br>
Codec ID : S_TEXT/UTF8<br>
Codec ID/Info : UTF-8 Plain Text<br>
Duration : 3 h 30 min<br>
Bit rate : 95 b/s<br>
Frame rate : 0.268 FPS<br>
Count of elements : 3378<br>
Stream size : 147 KiB (0%)<br>
Title : SDH<br>
Language : English<br>
Default : No<br>
Forced : No<br>
<br>
Text #3<br>
ID : 5<br>
Format : UTF-8<br>
Codec ID : S_TEXT/UTF8<br>
Codec ID/Info : UTF-8 Plain Text<br>
Duration : 3 h 28 min<br>
Bit rate : 4 b/s<br>
Frame rate : 0.016 FPS<br>
Count of elements : 200<br>
Stream size : 6.70 KiB (0%)<br>
Language : Czech<br>
Default : No<br>
Forced : No<br>
<br>
Text #4<br>
ID : 6<br>
Format : UTF-8<br>
Codec ID : S_TEXT/UTF8<br>
Codec ID/Info : UTF-8 Plain Text<br>
Duration : 3 h 28 min<br>
Bit rate : 4 b/s<br>
Frame rate : 0.016 FPS<br>
Count of elements : 199<br>
Stream size : 6.57 KiB (0%)<br>
Language : Danish<br>
Default : No<br>
Forced : No<br>
<br>
Text #5<br>
ID : 7<br>
Format : UTF-8<br>
Codec ID : S_TEXT/UTF8<br>
Codec ID/Info : UTF-8 Plain Text<br>
Duration : 3 h 12 min<br>
Bit rate : 5 b/s<br>
Frame rate : 0.014 FPS<br>
Count of elements : 162<br>
Stream size : 7.07 KiB (0%)<br>
Language : German<br>
Default : No<br>
Forced : No<br>
<br>
Text #6<br>
ID : 8<br>
Format : UTF-8<br>
Codec ID : S_TEXT/UTF8<br>
Codec ID/Info : UTF-8 Plain Text<br>
Duration : 3 h 28 min<br>
Bit rate : 8 b/s<br>
Frame rate : 0.016 FPS<br>
Count of elements : 200<br>
Stream size : 12.3 KiB (0%)<br>
Language : Greek<br>
Default : No<br>
Forced : No<br>
<br>
Text #7<br>
ID : 9<br>
Format : UTF-8<br>
Codec ID : S_TEXT/UTF8<br>
Codec ID/Info : UTF-8 Plain Text<br>
Duration : 3 h 12 min<br>
Bit rate : 5 b/s<br>
Frame rate : 0.014 FPS<br>
Count of elements : 164<br>
Stream size : 7.87 KiB (0%)<br>
Title : Latin American<br>
Language : Spanish (Latin America)<br>
Default : No<br>
Forced : No<br>
<br>
Text #8<br>
ID : 10<br>
Format : UTF-8<br>
Codec ID : S_TEXT/UTF8<br>
Codec ID/Info : UTF-8 Plain Text<br>
Duration : 3 h 28 min<br>
Bit rate : 4 b/s<br>
Frame rate : 0.016 FPS<br>
Count of elements : 200<br>
Stream size : 6.80 KiB (0%)<br>
Language : Spanish (ES)<br>
Default : No<br>
Forced : No<br>
<br>
Text #9<br>
ID : 11<br>
Format : UTF-8<br>
Codec ID : S_TEXT/UTF8<br>
Codec ID/Info : UTF-8 Plain Text<br>
Duration : 3 h 28 min<br>
Bit rate : 4 b/s<br>
Frame rate : 0.016 FPS<br>
Count of elements : 200<br>
Stream size : 6.24 KiB (0%)<br>
Language : Finnish<br>
Default : No<br>
Forced : No<br>
<br>
Text #10<br>
ID : 12<br>
Format : UTF-8<br>
Codec ID : S_TEXT/UTF8<br>
Codec ID/Info : UTF-8 Plain Text<br>
Duration : 3 h 12 min<br>
Bit rate : 5 b/s<br>
Frame rate : 0.014 FPS<br>
Count of elements : 167<br>
Stream size : 7.82 KiB (0%)<br>
Title : Canadian<br>
Language : French (CA)<br>
Default : No<br>
Forced : No<br>
<br>
Text #11<br>
ID : 13<br>
Format : UTF-8<br>
Codec ID : S_TEXT/UTF8<br>
Codec ID/Info : UTF-8 Plain Text<br>
Duration : 3 h 28 min<br>
Bit rate : 4 b/s<br>
Frame rate : 0.016 FPS<br>
Count of elements : 201<br>
Stream size : 6.56 KiB (0%)<br>
Language : French (FR)<br>
Default : No<br>
Forced : No<br>
<br>
Text #12<br>
ID : 14<br>
Format : UTF-8<br>
Codec ID : S_TEXT/UTF8<br>
Codec ID/Info : UTF-8 Plain Text<br>
Duration : 3 h 28 min<br>
Bit rate : 4 b/s<br>
Frame rate : 0.016 FPS<br>
Count of elements : 201<br>
Stream size : 6.83 KiB (0%)<br>
Language : Hungarian<br>
Default : No<br>
Forced : No<br>
<br>
Text #13<br>
ID : 15<br>
Format : UTF-8<br>
Codec ID : S_TEXT/UTF8<br>
Codec ID/Info : UTF-8 Plain Text<br>
Duration : 3 h 12 min<br>
Bit rate : 4 b/s<br>
Frame rate : 0.014 FPS<br>
Count of elements : 167<br>
Stream size : 6.78 KiB (0%)<br>
Language : Italian<br>
Default : No<br>
Forced : No<br>
<br>
Text #14<br>
ID : 16<br>
Format : UTF-8<br>
Codec ID : S_TEXT/UTF8<br>
Codec ID/Info : UTF-8 Plain Text<br>
Duration : 3 h 28 min<br>
Bit rate : 3 b/s<br>
Frame rate : 0.011 FPS<br>
Count of elements : 143<br>
Stream size : 5.23 KiB (0%)<br>
Language : Japanese<br>
Default : No<br>
Forced : No<br>
<br>
Text #15<br>
ID : 17<br>
Format : UTF-8<br>
Codec ID : S_TEXT/UTF8<br>
Codec ID/Info : UTF-8 Plain Text<br>
Duration : 3 h 29 min<br>
Bit rate : 86 b/s<br>
Frame rate : 0.237 FPS<br>
Count of elements : 2976<br>
Stream size : 133 KiB (0%)<br>
Language : Korean<br>
Default : No<br>
Forced : No<br>
<br>
Text #16<br>
ID : 18<br>
Format : UTF-8<br>
Codec ID : S_TEXT/UTF8<br>
Codec ID/Info : UTF-8 Plain Text<br>
Duration : 3 h 28 min<br>
Bit rate : 4 b/s<br>
Frame rate : 0.016 FPS<br>
Count of elements : 197<br>
Stream size : 7.08 KiB (0%)<br>
Language : Dutch<br>
Default : No<br>
Forced : No<br>
<br>
Text #17<br>
ID : 19<br>
Format : UTF-8<br>
Codec ID : S_TEXT/UTF8<br>
Codec ID/Info : UTF-8 Plain Text<br>
Duration : 3 h 28 min<br>
Bit rate : 4 b/s<br>
Frame rate : 0.016 FPS<br>
Count of elements : 200<br>
Stream size : 6.81 KiB (0%)<br>
Language : Norwegian<br>
Default : No<br>
Forced : No<br>
<br>
Text #18<br>
ID : 20<br>
Format : UTF-8<br>
Codec ID : S_TEXT/UTF8<br>
Codec ID/Info : UTF-8 Plain Text<br>
Duration : 3 h 28 min<br>
Bit rate : 4 b/s<br>
Frame rate : 0.016 FPS<br>
Count of elements : 201<br>
Stream size : 6.24 KiB (0%)<br>
Language : Polish<br>
Default : No<br>
Forced : No<br>
<br>
Text #19<br>
ID : 21<br>
Format : UTF-8<br>
Codec ID : S_TEXT/UTF8<br>
Codec ID/Info : UTF-8 Plain Text<br>
Duration : 3 h 28 min<br>
Bit rate : 60 b/s<br>
Frame rate : 0.194 FPS<br>
Count of elements : 2428<br>
Stream size : 92.6 KiB (0%)<br>
Title : Brazilian<br>
Language : Portuguese (BR)<br>
Default : No<br>
Forced : No<br>
<br>
Text #20<br>
ID : 22<br>
Format : UTF-8<br>
Codec ID : S_TEXT/UTF8<br>
Codec ID/Info : UTF-8 Plain Text<br>
Duration : 3 h 28 min<br>
Bit rate : 4 b/s<br>
Frame rate : 0.016 FPS<br>
Count of elements : 200<br>
Stream size : 6.63 KiB (0%)<br>
Language : Portuguese (PT)<br>
Default : No<br>
Forced : No<br>
<br>
Text #21<br>
ID : 23<br>
Format : UTF-8<br>
Codec ID : S_TEXT/UTF8<br>
Codec ID/Info : UTF-8 Plain Text<br>
Duration : 3 h 12 min<br>
Bit rate : 5 b/s<br>
Frame rate : 0.014 FPS<br>
Count of elements : 165<br>
Stream size : 7.36 KiB (0%)<br>
Language : Romanian<br>
Default : No<br>
Forced : No<br>
<br>
Text #22<br>
ID : 24<br>
Format : UTF-8<br>
Codec ID : S_TEXT/UTF8<br>
Codec ID/Info : UTF-8 Plain Text<br>
Duration : 3 h 28 min<br>
Bit rate : 4 b/s<br>
Frame rate : 0.016 FPS<br>
Count of elements : 201<br>
Stream size : 7.23 KiB (0%)<br>
Language : Slovak<br>
Default : No<br>
Forced : No<br>
<br>
Text #23<br>
ID : 25<br>
Format : UTF-8<br>
Codec ID : S_TEXT/UTF8<br>
Codec ID/Info : UTF-8 Plain Text<br>
Duration : 3 h 28 min<br>
Bit rate : 3 b/s<br>
Frame rate : 0.016 FPS<br>
Count of elements : 200<br>
Stream size : 5.86 KiB (0%)<br>
Language : Swedish<br>
Default : No<br>
Forced : No<br>
<br>
Text #24<br>
ID : 26<br>
Format : UTF-8<br>
Codec ID : S_TEXT/UTF8<br>
Codec ID/Info : UTF-8 Plain Text<br>
Duration : 3 h 28 min<br>
Bit rate : 4 b/s<br>
Frame rate : 0.016 FPS<br>
Count of elements : 201<br>
Stream size : 7.02 KiB (0%)<br>
Language : Turkish<br>
Default : No<br>
Forced : No<br>
<br>
Text #25<br>
ID : 27<br>
Format : UTF-8<br>
Codec ID : S_TEXT/UTF8<br>
Codec ID/Info : UTF-8 Plain Text<br>
Duration : 3 h 12 min<br>
Bit rate : 3 b/s<br>
Frame rate : 0.014 FPS<br>
Count of elements : 165<br>
Stream size : 5.37 KiB (0%)<br>
Title : Traditional<br>
Language : Chinese (Traditional)<br>
Default : No<br>
Forced : No<br>
<br>
Menu<br>
00:54:42.000 : en:Scene 1<br>
02:23:27.208 : en:Scene 2<br>
02:58:45.250 : en:Credits<br>
03:04:10.667 : en<img src="styles/default/xenforo/smilies/grimace-48.png" class="mceSmilie" alt=":p" title="Stick Out Tongue    :p">ost-Credits Scene</div>
</div><br>
<div class="bbCodeBlock bbCodeVfcHH HiddenContent">
<div class="attribution type">Hidden Content:</div>
<blockquote>You must reply before you can see the hidden data contained here.</blockquote>
</div>
<div class="messageTextEndMarker">&nbsp;</div>
</blockquote>
</article>]]></description>
                <author><![CDATA[Lalynsantiago]]></author>
                </item>

                </channel></rss>